<svg width="35" height="35" viewBox="0 0 35 35" fill="none" xmlns="http://www.w3.org/2000/svg">
<path fill-rule="evenodd" clip-rule="evenodd" d="M13.5231 7.95466H10.3413C9.02331 7.95466 7.9549 9.02307 7.9549 10.341V13.5228C7.9549 14.8408 9.02331 15.9092 10.3413 15.9092H13.5231C14.841 15.9092 15.9094 14.8408 15.9094 13.5228V10.341C15.9094 9.02307 14.841 7.95466 13.5231 7.95466ZM9.54581 10.341C9.54581 9.9017 9.90195 9.54557 10.3413 9.54557H13.5231C13.9624 9.54557 14.3185 9.9017 14.3185 10.341V13.5228C14.3185 13.9622 13.9624 14.3183 13.5231 14.3183H10.3413C9.90195 14.3183 9.54581 13.9622 9.54581 13.5228V10.341Z" fill="#333333"/>
<path d="M19.0913 9.54557C19.0913 9.10625 19.4474 8.75011 19.8867 8.75011H26.2504C26.6897 8.75011 27.0458 9.10625 27.0458 9.54557C27.0458 9.98488 26.6897 10.341 26.2504 10.341H19.8867C19.4474 10.341 19.0913 9.98488 19.0913 9.54557Z" fill="#333333"/>
<path d="M19.8867 19.8865C19.4474 19.8865 19.0913 20.2426 19.0913 20.6819C19.0913 21.1212 19.4474 21.4774 19.8867 21.4774H26.2504C26.6897 21.4774 27.0458 21.1212 27.0458 20.6819C27.0458 20.2426 26.6897 19.8865 26.2504 19.8865H19.8867Z" fill="#333333"/>
<path d="M19.0913 14.3183C19.0913 13.879 19.4474 13.5228 19.8867 13.5228H24.6594C25.0988 13.5228 25.4549 13.879 25.4549 14.3183C25.4549 14.7576 25.0988 15.1137 24.6594 15.1137H19.8867C19.4474 15.1137 19.0913 14.7576 19.0913 14.3183Z" fill="#333333"/>
<path d="M19.8867 24.6592C19.4474 24.6592 19.0913 25.0153 19.0913 25.4547C19.0913 25.894 19.4474 26.2501 19.8867 26.2501H24.6594C25.0988 26.2501 25.4549 25.894 25.4549 25.4547C25.4549 25.0153 25.0988 24.6592 24.6594 24.6592H19.8867Z" fill="#333333"/>
<path fill-rule="evenodd" clip-rule="evenodd" d="M13.5231 19.091H10.3413C9.02331 19.091 7.9549 20.1594 7.9549 21.4774V24.6592C7.9549 25.9772 9.02331 27.0456 10.3413 27.0456H13.5231C14.841 27.0456 15.9094 25.9772 15.9094 24.6592V21.4774C15.9094 20.1594 14.841 19.091 13.5231 19.091ZM9.54581 21.4774C9.54581 21.0381 9.90195 20.6819 10.3413 20.6819H13.5231C13.9624 20.6819 14.3185 21.0381 14.3185 21.4774V24.6592C14.3185 25.0985 13.9624 25.4547 13.5231 25.4547H10.3413C9.90195 25.4547 9.54581 25.0985 9.54581 24.6592V21.4774Z" fill="#333333"/>
<path fill-rule="evenodd" clip-rule="evenodd" d="M7.9549 2.38647H27.0458C30.121 2.38647 32.614 4.87943 32.614 7.95466V27.0456C32.614 30.1208 30.121 32.6137 27.0458 32.6137H7.9549C4.87968 32.6137 2.38672 30.1208 2.38672 27.0456V7.95466C2.38672 4.87943 4.87968 2.38647 7.9549 2.38647ZM7.9549 3.97738C5.75831 3.97738 3.97763 5.75807 3.97763 7.95466V27.0456C3.97763 29.2422 5.75831 31.0228 7.9549 31.0228H27.0458C29.2424 31.0228 31.0231 29.2422 31.0231 27.0456V7.95466C31.0231 5.75807 29.2424 3.97738 27.0458 3.97738H7.9549Z" fill="#333333"/>
</svg>
