<svg width="99" height="21" viewBox="0 0 99 21" fill="none" xmlns="http://www.w3.org/2000/svg">
<path d="M9.49467 0.176C13.3027 0.176 16.1213 1.016 17.9507 2.696C19.7987 4.35733 20.7227 6.74667 20.7227 9.864C20.7227 11.8987 20.2653 13.6813 19.3507 15.212C18.4547 16.724 17.148 17.9 15.4307 18.74C13.7133 19.58 11.6507 20 9.24267 20C8.94401 20 8.55201 19.9907 8.06667 19.972C7.58134 19.9533 7.06801 19.944 6.52667 19.944C6.00401 19.9253 5.52801 19.916 5.09867 19.916C4.22134 19.916 3.36267 19.9253 2.52267 19.944C1.68267 19.944 1.01067 19.9627 0.506672 20V19.44C1.08534 19.4027 1.51467 19.328 1.79467 19.216C2.09334 19.104 2.28934 18.88 2.38267 18.544C2.49467 18.208 2.55067 17.704 2.55067 17.032V3.144C2.55067 2.45333 2.49467 1.94933 2.38267 1.632C2.28934 1.296 2.09334 1.072 1.79467 0.96C1.51467 0.829333 1.08534 0.754666 0.506672 0.735999V0.176C1.01067 0.194666 1.68267 0.222666 2.52267 0.259999C3.36267 0.278665 4.20267 0.278665 5.04267 0.259999C5.71467 0.241332 6.48001 0.222666 7.33867 0.204C8.19734 0.185333 8.91601 0.176 9.49467 0.176ZM9.69067 0.679998C8.83201 0.679998 8.27201 0.838665 8.01067 1.156C7.74934 1.47333 7.61867 2.11733 7.61867 3.088V17.088C7.61867 18.0587 7.74934 18.7027 8.01067 19.02C8.29067 19.3373 8.86001 19.496 9.71867 19.496C11.1373 19.496 12.2667 19.132 13.1067 18.404C13.9467 17.6573 14.544 16.5747 14.8987 15.156C15.272 13.7373 15.4587 12.0107 15.4587 9.976C15.4587 7.88533 15.2627 6.15867 14.8707 4.796C14.4787 3.41467 13.8533 2.388 12.9947 1.716C12.1547 1.02533 11.0533 0.679998 9.69067 0.679998ZM32.3978 5.104C33.0325 5.104 33.5365 5.244 33.9098 5.524C34.2831 5.78533 34.5538 6.13067 34.7218 6.56C34.8898 6.97067 34.9738 7.38133 34.9738 7.792C34.9738 8.55733 34.7498 9.17333 34.3018 9.64C33.8725 10.1067 33.3031 10.34 32.5938 10.34C31.8471 10.34 31.2778 10.172 30.8858 9.836C30.4938 9.48133 30.2978 9.01467 30.2978 8.436C30.2978 7.85733 30.4191 7.38133 30.6618 7.008C30.9231 6.63467 31.2405 6.31733 31.6138 6.056C31.3338 6.01867 31.0631 6.056 30.8018 6.168C30.5031 6.24267 30.2231 6.38267 29.9618 6.588C29.7005 6.79333 29.4765 7.036 29.2898 7.316C29.1031 7.596 28.9538 7.904 28.8418 8.24C28.7485 8.55733 28.7018 8.884 28.7018 9.22V17.116C28.7018 18.012 28.8978 18.6187 29.2898 18.936C29.7005 19.2533 30.3445 19.412 31.2218 19.412V20C30.7925 19.9813 30.1578 19.9627 29.3178 19.944C28.4778 19.9067 27.6098 19.888 26.7138 19.888C25.9111 19.888 25.0991 19.9067 24.2778 19.944C23.4751 19.9627 22.8778 19.9813 22.4858 20V19.412C23.1018 19.412 23.5311 19.272 23.7738 18.992C24.0351 18.712 24.1658 18.18 24.1658 17.396V8.548C24.1658 7.708 24.0445 7.092 23.8018 6.7C23.5591 6.28933 23.1205 6.084 22.4858 6.084V5.496C23.0831 5.552 23.6618 5.58 24.2218 5.58C25.0618 5.58 25.8551 5.552 26.6018 5.496C27.3671 5.42133 28.0671 5.31867 28.7018 5.188V7.484C28.9258 6.99867 29.2151 6.57867 29.5698 6.224C29.9431 5.86933 30.3631 5.59867 30.8298 5.412C31.3151 5.20667 31.8378 5.104 32.3978 5.104ZM37.8738 15.828C38.6764 15.828 39.3018 16.024 39.7498 16.416C40.2164 16.808 40.4498 17.368 40.4498 18.096C40.4498 18.8427 40.2164 19.412 39.7498 19.804C39.3018 20.196 38.6764 20.392 37.8738 20.392C37.0524 20.392 36.4178 20.196 35.9698 19.804C35.5218 19.412 35.2978 18.8427 35.2978 18.096C35.2978 17.368 35.5218 16.808 35.9698 16.416C36.4178 16.024 37.0524 15.828 37.8738 15.828ZM57.9751 0.176C61.7831 0.176 64.6018 1.016 66.4311 2.696C68.2791 4.35733 69.2031 6.74667 69.2031 9.864C69.2031 11.8987 68.7458 13.6813 67.8311 15.212C66.9351 16.724 65.6285 17.9 63.9111 18.74C62.1938 19.58 60.1311 20 57.7231 20C57.4245 20 57.0325 19.9907 56.5471 19.972C56.0618 19.9533 55.5485 19.944 55.0071 19.944C54.4845 19.9253 54.0085 19.916 53.5791 19.916C52.7018 19.916 51.8431 19.9253 51.0031 19.944C50.1631 19.944 49.4911 19.9627 48.9871 20V19.44C49.5658 19.4027 49.9951 19.328 50.2751 19.216C50.5738 19.104 50.7698 18.88 50.8631 18.544C50.9751 18.208 51.0311 17.704 51.0311 17.032V3.144C51.0311 2.45333 50.9751 1.94933 50.8631 1.632C50.7698 1.296 50.5738 1.072 50.2751 0.96C49.9951 0.829333 49.5658 0.754666 48.9871 0.735999V0.176C49.4911 0.194666 50.1631 0.222666 51.0031 0.259999C51.8431 0.278665 52.6831 0.278665 53.5231 0.259999C54.1951 0.241332 54.9605 0.222666 55.8191 0.204C56.6778 0.185333 57.3965 0.176 57.9751 0.176ZM58.1711 0.679998C57.3125 0.679998 56.7525 0.838665 56.4911 1.156C56.2298 1.47333 56.0991 2.11733 56.0991 3.088V17.088C56.0991 18.0587 56.2298 18.7027 56.4911 19.02C56.7711 19.3373 57.3405 19.496 58.1991 19.496C59.6178 19.496 60.7471 19.132 61.5871 18.404C62.4271 17.6573 63.0245 16.5747 63.3791 15.156C63.7525 13.7373 63.9391 12.0107 63.9391 9.976C63.9391 7.88533 63.7431 6.15867 63.3511 4.796C62.9591 3.41467 62.3338 2.388 61.4751 1.716C60.6351 1.02533 59.5338 0.679998 58.1711 0.679998ZM78.3023 5.104C79.7023 5.104 80.9249 5.356 81.9703 5.86C83.0343 6.34533 83.8556 7.148 84.4343 8.268C85.0316 9.388 85.3303 10.8813 85.3303 12.748C85.3303 14.6147 85.0316 16.108 84.4343 17.228C83.8556 18.348 83.0343 19.16 81.9703 19.664C80.9249 20.1493 79.7023 20.392 78.3023 20.392C76.9209 20.392 75.6983 20.1493 74.6343 19.664C73.5889 19.16 72.7676 18.348 72.1703 17.228C71.5729 16.108 71.2743 14.6147 71.2743 12.748C71.2743 10.8813 71.5729 9.388 72.1703 8.268C72.7676 7.148 73.5889 6.34533 74.6343 5.86C75.6983 5.356 76.9209 5.104 78.3023 5.104ZM78.3023 5.664C77.6489 5.664 77.0983 6.224 76.6503 7.344C76.2209 8.44533 76.0063 10.2467 76.0063 12.748C76.0063 15.2493 76.2209 17.06 76.6503 18.18C77.0983 19.2813 77.6489 19.832 78.3023 19.832C78.9743 19.832 79.5249 19.2813 79.9543 18.18C80.3836 17.06 80.5983 15.2493 80.5983 12.748C80.5983 10.2467 80.3836 8.44533 79.9543 7.344C79.5249 6.224 78.9743 5.664 78.3023 5.664ZM92.619 5.104C93.4403 5.104 94.1497 5.19733 94.747 5.384C95.3443 5.57067 95.783 5.748 96.063 5.916C96.7163 6.32667 97.1083 6.06533 97.239 5.132H97.827C97.7897 5.67333 97.7617 6.32667 97.743 7.092C97.7243 7.83867 97.715 8.84667 97.715 10.116H97.127C97.0523 9.42533 96.8843 8.744 96.623 8.072C96.3803 7.4 96.0163 6.84933 95.531 6.42C95.0457 5.972 94.411 5.748 93.627 5.748C93.123 5.748 92.6937 5.89733 92.339 6.196C92.003 6.49467 91.835 6.90533 91.835 7.428C91.835 7.988 92.003 8.48267 92.339 8.912C92.675 9.34133 93.1043 9.752 93.627 10.144C94.1683 10.536 94.7097 10.956 95.251 11.404C95.8483 11.852 96.3803 12.3093 96.847 12.776C97.3323 13.224 97.715 13.7187 97.995 14.26C98.2937 14.7827 98.443 15.4173 98.443 16.164C98.443 17.004 98.191 17.7413 97.687 18.376C97.183 19.0107 96.5203 19.5053 95.699 19.86C94.8777 20.2147 93.963 20.392 92.955 20.392C92.339 20.392 91.7977 20.3267 91.331 20.196C90.883 20.084 90.5097 19.9347 90.211 19.748C89.931 19.6173 89.679 19.5053 89.455 19.412C89.2497 19.3187 89.0443 19.2533 88.839 19.216C88.6523 19.1973 88.4937 19.2813 88.363 19.468C88.2323 19.6547 88.1297 19.8973 88.055 20.196H87.467C87.5043 19.5987 87.5323 18.8707 87.551 18.012C87.5697 17.1533 87.579 16.0147 87.579 14.596H88.167C88.279 15.604 88.4843 16.4907 88.783 17.256C89.1003 18.0213 89.5203 18.628 90.043 19.076C90.5657 19.5053 91.1817 19.72 91.891 19.72C92.2083 19.72 92.4977 19.664 92.759 19.552C93.039 19.4213 93.263 19.2253 93.431 18.964C93.6177 18.7027 93.711 18.3667 93.711 17.956C93.711 17.1347 93.4497 16.4533 92.927 15.912C92.4043 15.352 91.7603 14.7453 90.995 14.092C90.3977 13.588 89.8377 13.0933 89.315 12.608C88.811 12.1227 88.391 11.5907 88.055 11.012C87.7377 10.4333 87.579 9.78 87.579 9.052C87.579 8.212 87.8123 7.50267 88.279 6.924C88.7643 6.32667 89.3897 5.87867 90.155 5.58C90.9203 5.26267 91.7417 5.104 92.619 5.104Z" fill="#135200"/>
</svg>
