<svg width="73" height="22" viewBox="0 0 73 22" fill="none" xmlns="http://www.w3.org/2000/svg">
<path d="M9.88334 1.176C13.6913 1.176 16.51 2.016 18.3393 3.696C20.1873 5.35733 21.1113 7.74667 21.1113 10.864C21.1113 12.8987 20.654 14.6813 19.7393 16.212C18.8433 17.724 17.5367 18.9 15.8193 19.74C14.102 20.58 12.0393 21 9.63134 21C9.33268 21 8.94068 20.9907 8.45534 20.972C7.97001 20.9533 7.45668 20.944 6.91534 20.944C6.39268 20.9253 5.91668 20.916 5.48734 20.916C4.61001 20.916 3.75134 20.9253 2.91134 20.944C2.07134 20.944 1.39934 20.9627 0.895344 21V20.44C1.47401 20.4027 1.90334 20.328 2.18334 20.216C2.48201 20.104 2.67801 19.88 2.77134 19.544C2.88334 19.208 2.93934 18.704 2.93934 18.032V4.144C2.93934 3.45333 2.88334 2.94933 2.77134 2.632C2.67801 2.296 2.48201 2.072 2.18334 1.96C1.90334 1.82933 1.47401 1.75467 0.895344 1.736V1.176C1.39934 1.19467 2.07134 1.22267 2.91134 1.26C3.75134 1.27867 4.59134 1.27867 5.43134 1.26C6.10334 1.24133 6.86868 1.22267 7.72734 1.204C8.58601 1.18533 9.30468 1.176 9.88334 1.176ZM10.0793 1.68C9.22068 1.68 8.66068 1.83867 8.39934 2.156C8.13801 2.47333 8.00734 3.11733 8.00734 4.088V18.088C8.00734 19.0587 8.13801 19.7027 8.39934 20.02C8.67934 20.3373 9.24868 20.496 10.1073 20.496C11.526 20.496 12.6553 20.132 13.4953 19.404C14.3353 18.6573 14.9327 17.5747 15.2873 16.156C15.6607 14.7373 15.8473 13.0107 15.8473 10.976C15.8473 8.88533 15.6513 7.15867 15.2593 5.796C14.8673 4.41467 14.242 3.388 13.3833 2.716C12.5433 2.02533 11.442 1.68 10.0793 1.68ZM32.7865 6.104C33.4211 6.104 33.9251 6.244 34.2985 6.524C34.6718 6.78533 34.9425 7.13067 35.1105 7.56C35.2785 7.97067 35.3625 8.38133 35.3625 8.792C35.3625 9.55733 35.1385 10.1733 34.6905 10.64C34.2611 11.1067 33.6918 11.34 32.9825 11.34C32.2358 11.34 31.6665 11.172 31.2745 10.836C30.8825 10.4813 30.6865 10.0147 30.6865 9.436C30.6865 8.85733 30.8078 8.38133 31.0505 8.008C31.3118 7.63467 31.6291 7.31733 32.0025 7.056C31.7225 7.01867 31.4518 7.056 31.1905 7.168C30.8918 7.24267 30.6118 7.38267 30.3505 7.588C30.0891 7.79333 29.8651 8.036 29.6785 8.316C29.4918 8.596 29.3425 8.904 29.2305 9.24C29.1371 9.55733 29.0905 9.884 29.0905 10.22V18.116C29.0905 19.012 29.2865 19.6187 29.6785 19.936C30.0891 20.2533 30.7331 20.412 31.6105 20.412V21C31.1811 20.9813 30.5465 20.9627 29.7065 20.944C28.8665 20.9067 27.9985 20.888 27.1025 20.888C26.2998 20.888 25.4878 20.9067 24.6665 20.944C23.8638 20.9627 23.2665 20.9813 22.8745 21V20.412C23.4905 20.412 23.9198 20.272 24.1625 19.992C24.4238 19.712 24.5545 19.18 24.5545 18.396V9.548C24.5545 8.708 24.4331 8.092 24.1905 7.7C23.9478 7.28933 23.5091 7.084 22.8745 7.084V6.496C23.4718 6.552 24.0505 6.58 24.6105 6.58C25.4505 6.58 26.2438 6.552 26.9905 6.496C27.7558 6.42133 28.4558 6.31867 29.0905 6.188V8.484C29.3145 7.99867 29.6038 7.57867 29.9585 7.224C30.3318 6.86933 30.7518 6.59867 31.2185 6.412C31.7038 6.20667 32.2265 6.104 32.7865 6.104ZM38.2624 16.828C39.0651 16.828 39.6904 17.024 40.1384 17.416C40.6051 17.808 40.8384 18.368 40.8384 19.096C40.8384 19.8427 40.6051 20.412 40.1384 20.804C39.6904 21.196 39.0651 21.392 38.2624 21.392C37.4411 21.392 36.8064 21.196 36.3584 20.804C35.9104 20.412 35.6864 19.8427 35.6864 19.096C35.6864 18.368 35.9104 17.808 36.3584 17.416C36.8064 17.024 37.4411 16.828 38.2624 16.828ZM53.3127 21V20.02L56.6727 19.824H59.0247L62.4967 20.02V21H53.3127ZM55.9167 21C56.0007 17.808 56.0007 14.476 56.0007 11.144V9.828C56.0007 6.58 56.0007 3.248 55.9167 -1.66893e-06H59.8927C59.8087 3.22 59.8087 6.496 59.8087 9.828V11.144C59.8087 14.448 59.8087 17.78 59.8927 21H55.9167ZM63.4207 21V20.02L66.8087 19.824H69.1327L72.6047 20.02V21H63.4207ZM66.0247 21C66.1087 17.808 66.1087 14.476 66.1087 11.144V9.828C66.1087 6.58 66.1087 3.248 66.0247 -1.66893e-06H70.0007C69.9167 3.22 69.9167 6.496 69.9167 9.828V11.144C69.9167 14.448 69.9167 17.78 70.0007 21H66.0247ZM53.3127 0.979999V-1.66893e-06H62.4967V0.979999L59.0247 1.204H56.6727L53.3127 0.979999ZM63.4207 0.979999V-1.66893e-06H72.6047V0.979999L69.1327 1.204H66.8087L63.4207 0.979999Z" fill="#135200"/>
</svg>
