<svg width="35" height="35" viewBox="0 0 35 35" fill="none" xmlns="http://www.w3.org/2000/svg">
<path d="M11.1361 19.091C12.0158 19.091 12.7276 18.3782 12.7276 17.5001C12.7276 16.622 12.0158 15.9092 11.1361 15.9092C10.2589 15.9092 9.54581 16.622 9.54581 17.5001C9.54581 18.3782 10.2589 19.091 11.1361 19.091Z" fill="#092B00"/>
<path d="M17.501 19.091C18.3794 19.091 19.0913 18.3782 19.0913 17.5001C19.0913 16.622 18.3794 15.9092 17.501 15.9092C16.6225 15.9092 15.9094 16.622 15.9094 17.5001C15.9094 18.3782 16.6225 19.091 17.501 19.091Z" fill="#092B00"/>
<path d="M25.4549 17.5001C25.4549 18.3782 24.7431 19.091 23.8634 19.091C22.9849 19.091 22.2731 18.3782 22.2731 17.5001C22.2731 16.622 22.9849 15.9092 23.8634 15.9092C24.7431 15.9092 25.4549 16.622 25.4549 17.5001Z" fill="#092B00"/>
<path fill-rule="evenodd" clip-rule="evenodd" d="M17.501 32.6137H3.18217C2.74286 32.6137 2.38672 32.2576 2.38672 31.8183V17.4995C2.38672 9.15225 9.15291 2.38647 17.501 2.38647C25.848 2.38647 32.614 9.15245 32.614 17.4995C32.614 25.8476 25.8482 32.6137 17.501 32.6137ZM3.97763 31.0228H17.501C24.9696 31.0228 31.0231 24.9689 31.0231 17.4995C31.0231 10.0311 24.9694 3.97738 17.501 3.97738C10.0315 3.97738 3.97763 10.0309 3.97763 17.4995V31.0228Z" fill="#092B00"/>
</svg>
