<svg id="svg" version="1.1" xmlns="http://www.w3.org/2000/svg" xmlns:xlink="http://www.w3.org/1999/xlink" width="400" height="400" viewBox="0, 0, 400,400"><g id="svgg"><path id="path0" d="M192.773 22.461 C 81.307 28.232,3.534 133.153,30.583 241.264 C 43.322 292.178,80.259 336.537,127.637 357.819 C 177.014 380.000,231.797 379.113,279.315 355.364 C 371.252 309.416,404.420 195.224,351.401 107.183 C 318.319 52.250,256.379 19.168,192.773 22.461 M212.109 30.159 C 238.103 32.151,260.197 38.573,281.793 50.413 C 361.043 93.861,391.896 192.218,351.632 273.047 C 310.267 356.084,209.415 390.050,126.367 348.913 C 38.160 305.220,6.095 195.863,56.702 111.328 C 88.916 57.518,150.358 25.427,212.109 30.159 M195.428 63.231 C 195.364 63.295,195.313 68.081,195.313 73.868 L 195.313 84.390 185.390 84.268 C 176.113 84.153,175.449 84.168,175.185 84.485 C 174.956 84.760,174.902 85.689,174.902 89.336 L 174.902 93.848 185.087 93.820 L 195.272 93.792 195.341 103.650 C 195.424 115.483,194.789 114.063,200.000 114.063 C 205.211 114.063,204.576 115.483,204.659 103.650 L 204.728 93.792 214.913 93.820 L 225.098 93.848 225.098 89.336 C 225.098 85.689,225.044 84.760,224.815 84.485 C 224.551 84.168,223.887 84.153,214.612 84.268 L 204.691 84.390 204.640 73.787 L 204.590 63.184 200.066 63.150 C 197.579 63.131,195.491 63.168,195.428 63.231 M116.016 112.313 C 114.243 112.393,105.806 112.610,97.266 112.796 C 87.754 113.003,81.644 113.210,81.494 113.329 C 81.332 113.459,81.250 114.103,81.250 115.245 C 81.250 117.245,81.436 117.480,83.398 117.961 C 88.380 119.179,90.973 121.867,92.317 127.203 L 92.820 129.199 92.699 176.270 C 92.414 287.102,92.399 289.393,91.965 290.893 C 90.975 294.307,87.678 296.425,82.471 296.989 L 81.250 297.121 81.253 300.367 C 81.255 302.152,81.323 303.719,81.405 303.848 C 81.551 304.078,117.510 303.912,130.566 303.621 C 155.312 303.070,178.509 296.361,197.900 284.145 L 200.000 282.823 202.100 284.145 C 221.491 296.361,244.688 303.070,269.434 303.621 C 282.490 303.912,318.449 304.078,318.595 303.848 C 318.677 303.719,318.745 302.152,318.747 300.367 L 318.750 297.121 317.529 296.989 C 312.322 296.425,309.025 294.307,308.035 290.893 C 307.601 289.393,307.586 287.102,307.301 176.270 L 307.180 129.199 307.683 127.203 C 309.027 121.867,311.620 119.179,316.602 117.961 C 318.564 117.480,318.750 117.245,318.750 115.245 C 318.750 114.103,318.668 113.459,318.506 113.330 C 318.357 113.211,312.309 113.008,302.930 112.808 C 294.497 112.628,285.708 112.398,283.398 112.297 C 252.342 110.939,225.346 117.803,201.709 133.067 L 200.000 134.171 198.291 133.067 C 174.523 117.719,147.510 110.905,116.016 112.313 M140.306 123.912 C 157.220 125.614,172.434 130.554,186.426 138.885 C 188.037 139.845,189.600 140.827,189.899 141.067 L 190.443 141.504 188.836 142.871 C 163.470 164.450,151.999 197.896,159.589 228.148 C 163.962 245.582,174.267 261.798,189.042 274.497 L 191.071 276.241 190.621 276.605 C 188.722 278.143,179.580 282.750,174.316 284.822 C 161.307 289.943,149.401 292.101,134.277 292.078 C 123.454 292.061,122.131 291.844,121.402 289.964 C 121.184 289.401,121.355 217.010,121.739 147.461 C 121.879 122.254,121.432 123.356,131.445 123.521 C 134.722 123.575,138.709 123.751,140.306 123.912 M275.185 123.823 C 276.537 124.513,276.958 125.345,277.754 128.906 C 278.244 131.099,278.211 127.342,278.593 226.758 C 278.781 275.692,278.782 289.488,278.598 289.964 C 277.869 291.844,276.546 292.061,265.723 292.078 C 250.599 292.101,238.693 289.943,225.684 284.822 C 220.420 282.750,211.278 278.143,209.379 276.605 L 208.929 276.241 210.958 274.497 C 228.924 259.055,239.774 239.258,242.419 217.090 C 242.762 214.212,242.764 203.347,242.421 200.586 C 239.666 178.379,228.357 157.498,211.164 142.871 L 209.557 141.504 210.101 141.067 C 210.400 140.827,211.963 139.845,213.574 138.885 C 228.965 129.721,245.720 124.686,264.551 123.566 C 268.785 123.314,274.456 123.451,275.185 123.823 M201.734 150.146 C 238.896 183.615,239.017 236.539,202.002 268.248 L 200.000 269.963 197.998 268.248 C 164.460 239.517,160.966 192.283,189.896 158.713 C 192.564 155.618,199.526 148.659,199.978 148.637 C 200.019 148.635,200.809 149.314,201.734 150.146 " stroke="none" fill="#fbfbfb" fill-rule="evenodd"></path><path id="path1" d="M195.117 12.510 C 181.469 12.976,163.258 15.738,152.637 18.953 C 152.314 19.050,151.392 19.319,150.586 19.550 C 145.804 20.919,136.836 23.963,133.398 25.383 C 132.915 25.583,132.036 25.939,131.445 26.175 C 130.286 26.637,130.113 26.711,127.392 27.913 C 126.399 28.352,125.531 28.711,125.465 28.711 C 124.705 28.711,108.404 37.298,105.273 39.347 C 104.575 39.805,103.213 40.649,102.246 41.224 C 101.279 41.799,100.356 42.392,100.195 42.542 C 100.034 42.692,99.318 43.179,98.605 43.624 C 97.891 44.069,96.193 45.225,94.831 46.191 C 93.469 47.158,91.994 48.190,91.552 48.484 C 91.110 48.779,90.699 49.090,90.638 49.177 C 90.577 49.264,90.220 49.548,89.844 49.808 C 89.468 50.068,89.060 50.371,88.938 50.482 C 88.816 50.593,88.256 51.035,87.694 51.465 C 86.255 52.566,85.195 53.412,84.201 54.254 C 83.730 54.654,83.158 55.103,82.932 55.253 C 82.705 55.403,82.432 55.623,82.324 55.741 C 82.217 55.860,81.514 56.480,80.762 57.120 C 80.010 57.759,79.249 58.418,79.071 58.585 C 78.893 58.751,78.248 59.326,77.638 59.863 C 73.080 63.874,65.865 71.146,61.524 76.103 C 61.255 76.409,60.524 77.275,59.899 78.027 C 59.274 78.779,58.395 79.825,57.946 80.350 C 57.497 80.876,57.001 81.491,56.845 81.718 C 56.689 81.944,56.461 82.217,56.338 82.324 C 56.216 82.432,55.905 82.826,55.648 83.200 C 55.391 83.575,55.048 84.024,54.885 84.198 C 54.420 84.697,53.623 85.724,52.549 87.207 C 52.005 87.959,51.400 88.762,51.205 88.991 C 51.010 89.221,50.557 89.866,50.198 90.425 C 49.839 90.984,49.445 91.544,49.322 91.668 C 49.034 91.959,47.141 94.778,45.479 97.392 C 44.766 98.514,44.039 99.626,43.866 99.863 C 43.316 100.612,40.631 105.109,39.703 106.836 C 39.213 107.749,38.317 109.375,37.712 110.449 C 35.903 113.665,32.160 121.359,31.039 124.168 C 30.728 124.946,30.393 125.737,30.294 125.926 C 29.858 126.756,27.490 132.665,26.667 134.976 C 24.535 140.962,23.178 145.334,21.215 152.539 C 19.102 160.292,17.003 172.723,16.119 182.715 C 15.191 193.219,15.281 209.541,16.312 217.285 C 16.355 217.607,16.528 219.102,16.698 220.605 C 17.712 229.608,19.660 239.636,22.066 248.242 C 22.291 249.048,22.511 249.839,22.554 250.000 C 22.598 250.161,22.764 250.777,22.923 251.368 C 23.262 252.627,26.357 261.911,26.959 263.477 C 27.187 264.067,27.447 264.771,27.537 265.039 C 27.908 266.141,30.785 273.080,31.627 274.902 C 32.024 275.762,32.606 277.036,32.921 277.734 C 33.235 278.433,34.291 280.586,35.267 282.520 C 36.882 285.717,37.355 286.614,38.797 289.209 C 41.351 293.806,42.046 295.018,42.186 295.117 C 42.262 295.171,42.751 295.962,43.273 296.875 C 43.796 297.788,44.337 298.652,44.476 298.795 C 44.615 298.937,44.827 299.245,44.946 299.478 C 45.157 299.892,48.485 304.888,49.369 306.120 C 49.613 306.460,50.053 307.093,50.346 307.526 C 50.639 307.960,50.988 308.443,51.121 308.601 C 51.253 308.758,51.654 309.282,52.011 309.766 C 53.023 311.137,55.155 313.941,55.371 314.185 C 55.479 314.306,55.786 314.684,56.055 315.024 C 56.323 315.364,56.722 315.851,56.940 316.105 C 57.158 316.359,57.554 316.854,57.819 317.205 C 58.084 317.556,58.477 318.040,58.691 318.279 C 58.906 318.519,59.302 318.987,59.570 319.320 C 59.839 319.652,60.366 320.265,60.742 320.680 C 61.118 321.096,61.923 321.996,62.531 322.681 C 63.139 323.366,64.018 324.355,64.484 324.879 C 65.637 326.175,73.967 334.514,75.922 336.328 C 77.304 337.611,78.068 338.293,79.968 339.941 C 81.298 341.095,84.766 343.945,85.555 344.531 C 85.915 344.800,86.348 345.153,86.516 345.315 C 86.684 345.478,87.127 345.828,87.500 346.094 C 87.873 346.359,88.311 346.697,88.474 346.843 C 88.637 346.990,89.604 347.722,90.625 348.469 C 91.646 349.216,92.647 349.964,92.850 350.131 C 93.054 350.298,93.581 350.667,94.022 350.950 C 94.463 351.234,95.000 351.616,95.215 351.799 C 95.430 351.982,96.616 352.789,97.852 353.593 C 99.087 354.397,100.449 355.307,100.879 355.616 C 101.309 355.925,103.066 357.019,104.785 358.047 C 115.550 364.485,122.469 367.893,135.059 372.958 C 137.871 374.090,145.768 376.754,149.512 377.834 C 150.049 377.989,151.060 378.287,151.758 378.495 C 158.780 380.594,170.930 382.986,180.078 384.070 C 203.230 386.814,229.531 384.835,251.172 378.720 C 251.978 378.492,252.769 378.269,252.930 378.224 C 253.091 378.178,253.706 378.000,254.297 377.827 C 254.888 377.654,255.635 377.438,255.957 377.348 C 256.522 377.191,259.350 376.309,260.352 375.979 C 260.620 375.890,261.851 375.450,263.086 375.000 C 264.321 374.550,265.552 374.114,265.820 374.030 C 266.845 373.709,274.781 370.545,276.855 369.630 C 280.379 368.077,289.374 363.680,290.234 363.091 C 290.503 362.907,291.338 362.423,292.090 362.015 C 295.263 360.295,296.674 359.488,298.242 358.498 C 299.155 357.921,300.474 357.119,301.172 356.715 C 301.870 356.311,302.485 355.919,302.539 355.844 C 302.593 355.769,303.049 355.456,303.553 355.149 C 304.951 354.296,309.619 351.123,310.044 350.737 C 310.251 350.549,310.581 350.344,310.777 350.282 C 310.973 350.220,311.133 350.089,311.133 349.992 C 311.133 349.894,311.401 349.676,311.729 349.506 C 312.057 349.337,312.475 349.066,312.657 348.904 C 312.932 348.661,314.775 347.229,316.959 345.562 C 317.662 345.026,318.347 344.473,318.846 344.037 C 319.097 343.818,319.584 343.423,319.931 343.158 C 320.277 342.893,320.715 342.544,320.905 342.383 C 321.095 342.222,321.670 341.738,322.183 341.309 C 323.635 340.092,324.510 339.323,326.962 337.109 C 330.890 333.564,337.861 326.590,340.137 323.930 C 340.566 323.428,341.359 322.550,341.898 321.978 C 342.438 321.407,343.094 320.659,343.357 320.316 C 343.620 319.973,344.014 319.495,344.232 319.255 C 344.574 318.879,345.393 317.914,346.484 316.601 C 346.646 316.407,346.997 315.970,347.266 315.630 C 347.534 315.290,347.896 314.854,348.069 314.662 C 348.242 314.469,348.546 314.036,348.746 313.699 C 348.945 313.362,349.168 313.086,349.242 313.086 C 349.315 313.086,349.554 312.800,349.773 312.451 C 349.991 312.102,350.742 311.069,351.441 310.156 C 353.906 306.939,354.325 306.360,355.755 304.199 C 356.396 303.232,356.974 302.397,357.041 302.344 C 357.108 302.290,357.462 301.755,357.829 301.155 C 358.713 299.711,359.522 298.431,360.330 297.200 C 360.981 296.210,363.085 292.647,364.156 290.723 C 364.455 290.186,365.142 288.955,365.682 287.988 C 367.416 284.888,372.852 273.778,372.852 273.336 C 372.852 273.290,373.062 272.789,373.318 272.222 C 373.575 271.655,374.155 270.269,374.606 269.141 C 375.058 268.013,375.504 266.914,375.596 266.699 C 376.018 265.717,376.419 264.705,376.564 264.258 C 376.651 263.989,377.087 262.759,377.534 261.523 C 378.575 258.645,379.070 257.159,380.069 253.906 C 380.515 252.456,381.004 250.866,381.156 250.373 C 381.649 248.777,383.573 241.167,383.967 239.258 C 384.178 238.237,384.528 236.567,384.747 235.547 C 388.659 217.273,389.389 192.768,386.602 173.242 C 386.334 171.362,386.071 169.517,386.018 169.141 C 385.928 168.500,385.879 168.222,385.641 166.992 C 385.589 166.724,385.410 165.725,385.244 164.773 C 383.760 156.279,380.103 142.866,377.142 135.059 C 375.636 131.086,375.320 130.260,374.976 129.395 C 374.763 128.857,374.508 128.242,374.410 128.027 C 374.312 127.813,373.927 126.890,373.555 125.977 C 373.182 125.063,372.746 124.053,372.585 123.730 C 372.425 123.408,371.946 122.354,371.520 121.387 C 370.246 118.490,366.233 110.510,365.626 109.668 C 365.549 109.561,364.975 108.506,364.352 107.324 C 363.729 106.143,362.947 104.770,362.615 104.273 C 362.283 103.777,361.868 103.117,361.692 102.808 C 360.251 100.279,356.368 94.184,356.045 93.945 C 355.972 93.892,355.507 93.232,355.011 92.480 C 354.048 91.021,353.078 89.633,352.395 88.735 C 352.164 88.432,351.685 87.797,351.330 87.324 C 350.974 86.850,350.464 86.180,350.195 85.833 C 349.927 85.487,349.448 84.863,349.132 84.447 C 348.816 84.032,348.461 83.604,348.344 83.496 C 348.226 83.389,347.918 82.993,347.659 82.617 C 347.229 81.993,346.933 81.627,346.094 80.687 C 345.933 80.506,345.570 80.053,345.289 79.681 C 345.007 79.309,344.480 78.678,344.117 78.280 C 343.754 77.882,343.193 77.231,342.871 76.832 C 342.549 76.434,342.065 75.873,341.797 75.584 C 341.528 75.296,340.693 74.373,339.941 73.533 C 339.189 72.692,337.712 71.119,336.658 70.036 C 335.604 68.953,334.275 67.583,333.706 66.992 C 332.377 65.614,327.203 60.740,325.656 59.411 C 325.242 59.054,324.432 58.351,323.858 57.848 C 322.094 56.304,321.943 56.174,321.080 55.469 C 320.620 55.093,320.104 54.652,319.934 54.490 C 319.763 54.327,319.318 53.977,318.945 53.711 C 318.572 53.445,318.125 53.095,317.952 52.932 C 317.779 52.770,317.172 52.285,316.603 51.855 C 316.034 51.426,315.296 50.849,314.962 50.573 C 314.628 50.298,314.048 49.867,313.672 49.615 C 313.296 49.364,312.900 49.060,312.793 48.940 C 312.686 48.820,312.142 48.432,311.584 48.079 C 311.027 47.725,310.544 47.370,310.510 47.289 C 310.477 47.208,309.834 46.735,309.082 46.238 C 308.330 45.741,306.660 44.617,305.371 43.740 C 303.179 42.250,297.289 38.571,295.313 37.457 C 294.829 37.185,293.862 36.635,293.164 36.236 C 289.520 34.150,283.383 31.051,279.102 29.135 C 274.737 27.182,274.596 27.120,273.242 26.569 C 272.651 26.329,271.904 26.011,271.582 25.863 C 267.630 24.052,253.590 19.444,248.438 18.267 C 248.276 18.230,247.134 17.937,245.898 17.615 C 244.663 17.293,243.389 16.986,243.066 16.932 C 242.744 16.879,240.961 16.519,239.104 16.133 C 234.491 15.175,227.183 14.004,223.145 13.576 C 222.500 13.508,221.709 13.418,221.387 13.377 C 215.776 12.657,203.071 12.238,195.117 12.510 M207.520 22.267 C 227.137 22.980,251.982 28.290,266.895 34.956 C 267.109 35.053,268.252 35.539,269.434 36.036 C 305.388 51.188,335.393 78.091,354.603 112.402 C 381.969 161.282,384.207 219.415,360.733 271.680 C 349.822 295.972,330.909 319.825,309.161 336.723 C 298.333 345.136,284.315 353.669,274.219 357.991 C 273.628 358.244,272.705 358.652,272.168 358.898 C 257.865 365.455,239.411 370.560,222.461 372.650 C 148.428 381.775,76.279 342.906,43.377 276.172 C 41.456 272.276,40.982 271.269,39.839 268.652 C 39.604 268.115,39.293 267.412,39.147 267.090 C 30.038 246.957,24.536 218.708,25.072 194.824 C 25.571 172.617,30.721 148.037,38.576 130.371 C 38.720 130.049,39.156 129.046,39.545 128.143 C 55.773 90.511,85.315 59.265,122.070 40.857 C 126.581 38.599,130.107 36.980,133.496 35.613 C 134.678 35.136,135.820 34.665,136.035 34.566 C 136.981 34.130,142.372 32.173,145.410 31.163 C 165.477 24.492,186.376 21.498,207.520 22.267 M192.383 30.097 C 175.908 30.943,156.902 34.809,143.066 40.128 C 138.671 41.818,137.530 42.263,137.012 42.491 C 136.689 42.633,135.874 42.977,135.199 43.255 C 124.014 47.863,110.617 55.581,100.098 63.474 C 82.365 76.780,66.503 94.540,55.805 113.066 C 53.334 117.344,49.526 124.653,48.161 127.734 C 47.852 128.433,47.211 129.883,46.736 130.957 C 28.383 172.490,28.291 224.610,46.502 264.589 C 46.707 265.040,46.875 265.449,46.875 265.499 C 46.875 266.193,52.667 277.587,55.527 282.520 C 72.763 312.246,100.487 337.464,130.664 350.864 C 150.652 359.740,167.167 363.986,188.867 365.827 C 211.075 367.711,239.000 363.681,259.996 355.560 C 263.498 354.205,265.933 353.219,267.676 352.449 C 267.998 352.306,268.701 351.996,269.238 351.758 C 273.385 349.928,282.198 345.519,283.301 344.724 C 283.408 344.647,283.892 344.365,284.375 344.098 C 319.082 324.918,347.689 290.013,360.535 251.172 C 375.497 205.930,370.428 154.373,347.134 114.876 C 346.669 114.089,346.289 113.414,346.289 113.377 C 346.289 113.339,345.275 111.667,344.036 109.661 C 326.020 80.490,298.716 56.907,267.578 43.625 C 267.202 43.464,266.719 43.252,266.504 43.154 C 246.612 34.033,217.070 28.829,192.383 30.097 M204.641 63.169 C 204.720 63.249,204.809 68.013,204.839 73.756 L 204.893 84.198 214.773 84.169 C 222.843 84.145,224.702 84.188,224.916 84.404 C 225.392 84.881,225.549 93.368,225.091 93.827 C 224.749 94.169,224.281 94.178,214.833 94.041 L 204.933 93.897 204.849 103.615 L 204.764 113.333 204.227 113.795 C 203.391 114.514,196.609 114.514,195.773 113.795 L 195.236 113.333 195.151 103.615 L 195.067 93.897 185.167 94.041 C 175.719 94.178,175.251 94.169,174.909 93.827 C 174.451 93.368,174.608 84.881,175.084 84.404 C 175.298 84.188,177.158 84.145,185.232 84.169 L 195.117 84.198 195.120 74.081 C 195.123 63.620,195.146 63.147,195.660 63.048 C 196.312 62.922,204.504 63.033,204.641 63.169 M132.715 112.114 C 156.955 113.550,179.135 120.531,197.803 132.602 L 200.000 134.023 202.197 132.602 C 225.041 117.831,252.629 110.797,282.520 112.125 C 285.205 112.244,294.379 112.493,302.905 112.677 C 320.841 113.065,318.960 112.745,318.871 115.388 C 318.805 117.334,318.619 117.583,316.947 117.972 C 311.878 119.151,309.201 121.769,307.876 126.847 L 307.415 128.613 307.418 158.008 C 307.419 174.175,307.464 190.962,307.518 195.313 C 307.572 199.663,307.664 222.734,307.724 246.582 C 307.843 294.031,307.758 290.905,308.979 292.832 C 310.337 294.973,313.042 296.186,318.227 296.979 L 318.973 297.093 318.834 300.549 C 318.680 304.371,318.689 304.350,317.383 304.210 C 316.899 304.159,306.265 304.065,293.750 304.001 C 270.661 303.883,264.961 303.754,259.180 303.215 C 245.347 301.927,230.397 298.171,218.848 293.084 C 218.525 292.942,217.778 292.617,217.188 292.362 C 213.231 290.653,206.851 287.257,202.490 284.539 L 200.000 282.987 197.510 284.539 C 193.149 287.257,186.769 290.653,182.813 292.362 C 182.222 292.617,181.475 292.942,181.152 293.084 C 169.603 298.171,154.653 301.927,140.820 303.215 C 135.039 303.754,129.339 303.883,106.250 304.001 C 93.735 304.065,83.101 304.159,82.617 304.210 C 81.311 304.350,81.320 304.371,81.166 300.549 L 81.027 297.093 81.773 296.979 C 86.958 296.186,89.663 294.973,91.021 292.832 C 92.242 290.905,92.157 294.031,92.276 246.582 C 92.336 222.734,92.428 199.663,92.482 195.313 C 92.536 190.962,92.581 174.175,92.582 158.008 L 92.585 128.613 92.124 126.847 C 90.799 121.769,88.122 119.151,83.053 117.972 C 81.381 117.583,81.195 117.334,81.129 115.388 C 81.040 112.745,79.131 113.066,97.290 112.668 C 105.924 112.478,114.614 112.246,116.602 112.151 C 121.804 111.903,128.876 111.887,132.715 112.114 M124.570 124.032 C 123.422 124.638,122.490 127.265,122.069 131.075 C 121.647 134.904,121.245 289.665,121.656 290.234 C 122.633 291.588,123.126 291.691,130.143 292.002 C 148.235 292.804,166.630 288.946,182.496 281.022 C 185.565 279.489,190.529 276.681,190.722 276.368 C 190.776 276.282,189.918 275.441,188.818 274.500 C 163.769 253.079,152.311 221.458,158.884 191.895 C 159.726 188.111,161.658 181.628,162.494 179.785 C 162.592 179.570,163.125 178.296,163.680 176.953 C 168.392 165.546,176.862 153.667,186.759 144.586 C 188.339 143.136,189.785 141.837,189.974 141.700 C 190.371 141.409,188.913 140.396,184.316 137.770 C 168.180 128.549,149.157 123.606,129.944 123.641 C 125.715 123.649,125.227 123.685,124.570 124.032 M262.109 123.851 C 244.040 125.161,225.673 131.135,211.395 140.346 C 209.867 141.332,209.721 141.477,210.026 141.700 C 210.215 141.837,211.661 143.136,213.241 144.586 C 223.138 153.667,231.608 165.546,236.320 176.953 C 236.875 178.296,237.408 179.570,237.506 179.785 C 238.342 181.628,240.274 188.111,241.116 191.895 C 247.689 221.458,236.231 253.079,211.182 274.500 C 210.082 275.441,209.224 276.282,209.278 276.368 C 209.471 276.681,214.435 279.489,217.504 281.022 C 233.370 288.946,251.765 292.804,269.857 292.002 C 276.874 291.691,277.366 291.588,278.344 290.234 C 278.756 289.665,278.354 134.905,277.931 131.075 C 277.502 127.195,276.577 124.629,275.389 124.023 C 274.544 123.591,267.026 123.494,262.109 123.851 M197.052 151.436 C 164.726 181.398,161.430 227.417,189.317 259.442 C 192.254 262.815,199.433 269.727,200.000 269.727 C 200.065 269.727,201.257 268.726,202.647 267.503 C 235.252 238.831,238.685 193.000,210.725 159.641 C 207.502 155.796,200.591 148.828,200.000 148.828 C 199.926 148.828,198.599 150.002,197.052 151.436 " stroke="none" fill="#145404" fill-rule="evenodd"></path><path id="path2" d="M199.062 22.216 C 199.997 22.251,201.579 22.251,202.578 22.216 C 203.577 22.180,202.813 22.151,200.879 22.151 C 198.945 22.151,198.128 22.180,199.062 22.216 M192.336 22.404 C 192.579 22.450,192.931 22.449,193.118 22.400 C 193.304 22.351,193.105 22.313,192.676 22.315 C 192.246 22.317,192.093 22.357,192.336 22.404 M209.231 22.406 C 209.528 22.451,209.968 22.449,210.208 22.403 C 210.448 22.357,210.205 22.320,209.668 22.321 C 209.131 22.323,208.934 22.361,209.231 22.406 M194.092 30.021 C 194.333 30.067,194.729 30.067,194.971 30.021 C 195.212 29.974,195.015 29.936,194.531 29.936 C 194.048 29.936,193.850 29.974,194.092 30.021 M207.178 30.021 C 207.419 30.067,207.815 30.067,208.057 30.021 C 208.298 29.974,208.101 29.936,207.617 29.936 C 207.134 29.936,206.936 29.974,207.178 30.021 M195.192 66.016 C 195.192 67.358,195.224 67.908,195.262 67.236 C 195.300 66.565,195.300 65.466,195.262 64.795 C 195.224 64.124,195.192 64.673,195.192 66.016 M204.762 65.918 C 204.762 67.207,204.794 67.709,204.832 67.033 C 204.871 66.358,204.870 65.303,204.832 64.690 C 204.793 64.076,204.762 64.629,204.762 65.918 M195.117 76.652 L 195.117 84.163 193.701 84.230 L 192.285 84.297 193.799 84.336 L 195.313 84.375 195.313 76.758 C 195.313 72.568,195.269 69.141,195.215 69.141 C 195.161 69.141,195.117 72.521,195.117 76.652 M204.734 76.709 L 204.688 84.375 206.201 84.336 L 207.715 84.297 206.301 84.230 L 204.887 84.163 204.834 76.603 L 204.780 69.043 204.734 76.709 M79.688 70.605 C 79.213 71.089,78.869 71.484,78.923 71.484 C 78.976 71.484,79.408 71.089,79.883 70.605 C 80.357 70.122,80.701 69.727,80.648 69.727 C 80.594 69.727,80.162 70.122,79.688 70.605 M322.754 71.289 C 323.392 71.934,323.957 72.461,324.011 72.461 C 324.065 72.461,323.587 71.934,322.949 71.289 C 322.311 70.645,321.746 70.117,321.692 70.117 C 321.638 70.117,322.116 70.645,322.754 71.289 M314.453 73.889 C 314.453 73.923,314.739 74.208,315.088 74.524 L 315.723 75.098 315.149 74.463 C 314.614 73.871,314.453 73.738,314.453 73.889 M327.734 76.270 C 328.318 76.860,328.839 77.344,328.893 77.344 C 328.947 77.344,328.513 76.860,327.930 76.270 C 327.346 75.679,326.825 75.195,326.771 75.195 C 326.717 75.195,327.151 75.679,327.734 76.270 M82.029 79.053 L 79.004 82.129 82.080 79.104 C 84.938 76.294,85.245 75.977,85.105 75.977 C 85.077 75.977,83.693 77.361,82.029 79.053 M73.242 77.051 C 72.768 77.534,72.424 77.930,72.477 77.930 C 72.531 77.930,72.963 77.534,73.438 77.051 C 73.912 76.567,74.256 76.172,74.202 76.172 C 74.149 76.172,73.717 76.567,73.242 77.051 M319.824 79.102 C 321.110 80.391,322.206 81.445,322.260 81.445 C 322.313 81.445,321.305 80.391,320.020 79.102 C 318.734 77.813,317.638 76.758,317.584 76.758 C 317.531 76.758,318.539 77.813,319.824 79.102 M324.316 83.789 C 324.736 84.219,325.123 84.570,325.177 84.570 C 325.231 84.570,324.931 84.219,324.512 83.789 C 324.092 83.359,323.705 83.008,323.651 83.008 C 323.597 83.008,323.897 83.359,324.316 83.789 M76.843 84.424 L 76.270 85.059 76.904 84.485 C 77.496 83.950,77.629 83.789,77.478 83.789 C 77.444 83.789,77.159 84.075,76.843 84.424 M174.687 90.820 C 174.687 92.378,174.717 93.015,174.754 92.236 C 174.791 91.458,174.791 90.183,174.754 89.404 C 174.717 88.625,174.687 89.263,174.687 90.820 M225.273 90.820 C 225.273 92.378,225.303 93.015,225.340 92.236 C 225.377 91.458,225.377 90.183,225.340 89.404 C 225.303 88.625,225.273 89.263,225.273 90.820 M179.053 94.091 C 180.154 94.126,181.956 94.126,183.057 94.091 C 184.158 94.056,183.257 94.028,181.055 94.028 C 178.853 94.028,177.952 94.056,179.053 94.091 M195.206 101.953 C 195.206 106.411,195.232 108.235,195.263 106.006 C 195.295 103.777,195.295 100.129,195.263 97.900 C 195.232 95.671,195.206 97.495,195.206 101.953 M204.777 101.953 C 204.777 106.411,204.802 108.235,204.834 106.006 C 204.865 103.777,204.865 100.129,204.834 97.900 C 204.802 95.671,204.777 97.495,204.777 101.953 M216.943 94.091 C 218.044 94.126,219.846 94.126,220.947 94.091 C 222.048 94.056,221.147 94.028,218.945 94.028 C 216.743 94.028,215.842 94.056,216.943 94.091 M120.559 112.054 C 120.856 112.099,121.296 112.098,121.536 112.052 C 121.776 112.005,121.533 111.968,120.996 111.970 C 120.459 111.971,120.262 112.009,120.559 112.054 M129.736 112.049 C 129.924 112.098,130.232 112.098,130.420 112.049 C 130.608 112.000,130.454 111.959,130.078 111.959 C 129.702 111.959,129.548 112.000,129.736 112.049 M269.580 112.049 C 269.768 112.098,270.076 112.098,270.264 112.049 C 270.452 112.000,270.298 111.959,269.922 111.959 C 269.546 111.959,269.392 112.000,269.580 112.049 M278.567 112.054 C 278.864 112.099,279.303 112.098,279.544 112.052 C 279.784 112.005,279.541 111.968,279.004 111.970 C 278.467 111.971,278.270 112.009,278.567 112.054 M109.724 112.449 C 110.400 112.488,111.455 112.487,112.068 112.449 C 112.682 112.410,112.129 112.379,110.840 112.379 C 109.551 112.380,109.049 112.411,109.724 112.449 M288.045 112.449 C 288.720 112.488,289.775 112.487,290.389 112.449 C 291.002 112.410,290.449 112.379,289.160 112.379 C 287.871 112.380,287.369 112.411,288.045 112.449 M101.123 112.645 C 101.794 112.683,102.893 112.683,103.564 112.645 C 104.236 112.606,103.687 112.575,102.344 112.575 C 101.001 112.575,100.452 112.606,101.123 112.645 M296.436 112.645 C 297.107 112.683,298.206 112.683,298.877 112.645 C 299.548 112.606,298.999 112.575,297.656 112.575 C 296.313 112.575,295.764 112.606,296.436 112.645 M92.529 112.840 C 93.201 112.878,94.299 112.878,94.971 112.840 C 95.642 112.802,95.093 112.771,93.750 112.771 C 92.407 112.771,91.858 112.802,92.529 112.840 M305.029 112.840 C 305.701 112.878,306.799 112.878,307.471 112.840 C 308.142 112.802,307.593 112.771,306.250 112.771 C 304.907 112.771,304.358 112.802,305.029 112.840 M83.643 113.035 C 84.260 113.074,85.271 113.074,85.889 113.035 C 86.506 112.996,86.001 112.964,84.766 112.964 C 83.530 112.964,83.025 112.996,83.643 113.035 M314.111 113.035 C 314.729 113.074,315.740 113.074,316.357 113.035 C 316.975 112.996,316.470 112.964,315.234 112.964 C 313.999 112.964,313.494 112.996,314.111 113.035 M198.096 114.208 C 199.143 114.243,200.857 114.243,201.904 114.208 C 202.952 114.173,202.095 114.144,200.000 114.144 C 197.905 114.144,197.048 114.173,198.096 114.208 M127.686 123.583 C 128.787 123.618,130.588 123.618,131.689 123.583 C 132.791 123.548,131.890 123.520,129.688 123.520 C 127.485 123.520,126.584 123.548,127.686 123.583 M268.311 123.583 C 269.412 123.618,271.213 123.618,272.314 123.583 C 273.416 123.548,272.515 123.520,270.313 123.520 C 268.110 123.520,267.209 123.548,268.311 123.583 M136.184 123.773 C 136.481 123.818,136.921 123.817,137.161 123.770 C 137.401 123.724,137.158 123.687,136.621 123.689 C 136.084 123.690,135.887 123.728,136.184 123.773 M262.942 123.773 C 263.239 123.818,263.678 123.817,263.919 123.770 C 264.159 123.724,263.916 123.687,263.379 123.689 C 262.842 123.690,262.645 123.728,262.942 123.773 M92.670 144.238 C 92.670 151.328,92.695 154.200,92.725 150.621 C 92.754 147.041,92.754 141.240,92.724 137.730 C 92.695 134.220,92.670 137.148,92.670 144.238 M307.319 144.238 C 307.319 151.328,307.343 154.200,307.373 150.621 C 307.403 147.041,307.403 141.240,307.373 137.730 C 307.343 134.220,307.319 137.148,307.319 144.238 M121.772 155.762 C 121.772 163.496,121.797 166.632,121.826 162.730 C 121.856 158.828,121.856 152.500,121.826 148.667 C 121.796 144.835,121.772 148.027,121.772 155.762 M278.218 155.664 C 278.218 163.345,278.242 166.487,278.271 162.646 C 278.301 158.806,278.301 152.522,278.271 148.682 C 278.242 144.841,278.218 147.983,278.218 155.664 M183.882 147.314 L 182.324 148.926 183.936 147.368 C 185.432 145.921,185.636 145.703,185.493 145.703 C 185.464 145.703,184.739 146.428,183.882 147.314 M215.918 147.266 C 216.772 148.125,217.515 148.828,217.569 148.828 C 217.623 148.828,216.968 148.125,216.113 147.266 C 215.259 146.406,214.516 145.703,214.462 145.703 C 214.409 145.703,215.064 146.406,215.918 147.266 M197.156 151.221 L 196.582 151.855 197.217 151.282 C 197.566 150.966,197.852 150.681,197.852 150.647 C 197.852 150.496,197.690 150.629,197.156 151.221 M202.148 150.647 C 202.148 150.681,202.434 150.966,202.783 151.282 L 203.418 151.855 202.844 151.221 C 202.310 150.629,202.148 150.496,202.148 150.647 M368.799 187.598 C 368.801 188.027,368.841 188.180,368.888 187.937 C 368.935 187.694,368.933 187.343,368.884 187.156 C 368.835 186.969,368.797 187.168,368.799 187.598 M25.249 189.063 C 25.249 189.546,25.287 189.744,25.333 189.502 C 25.380 189.260,25.380 188.865,25.333 188.623 C 25.287 188.381,25.249 188.579,25.249 189.063 M32.858 190.625 C 32.858 191.001,32.898 191.155,32.947 190.967 C 32.996 190.779,32.996 190.471,32.947 190.283 C 32.898 190.095,32.858 190.249,32.858 190.625 M369.006 191.699 C 369.007 192.344,369.043 192.584,369.087 192.233 C 369.130 191.882,369.129 191.354,369.085 191.061 C 369.040 190.767,369.005 191.055,369.006 191.699 M25.071 194.824 C 25.072 195.898,25.105 196.313,25.144 195.745 C 25.184 195.178,25.183 194.299,25.143 193.792 C 25.103 193.286,25.071 193.750,25.071 194.824 M121.577 207.422 C 121.577 215.210,121.601 218.396,121.631 214.502 C 121.660 210.608,121.660 204.236,121.631 200.342 C 121.601 196.448,121.577 199.634,121.577 207.422 M278.413 207.324 C 278.413 215.059,278.437 218.194,278.467 214.292 C 278.496 210.390,278.496 204.062,278.467 200.230 C 278.437 196.397,278.413 199.590,278.413 207.324 M92.475 205.859 C 92.475 212.573,92.499 215.320,92.529 211.963 C 92.559 208.606,92.559 203.113,92.529 199.756 C 92.499 196.399,92.475 199.146,92.475 205.859 M307.514 205.859 C 307.514 212.573,307.538 215.320,307.568 211.963 C 307.598 208.606,307.598 203.113,307.568 199.756 C 307.538 196.399,307.514 199.146,307.514 205.859 M376.835 197.949 C 376.835 199.453,376.866 200.043,376.903 199.259 C 376.940 198.476,376.940 197.245,376.902 196.525 C 376.865 195.804,376.835 196.445,376.835 197.949 M25.073 201.074 C 25.074 202.256,25.106 202.714,25.145 202.092 C 25.183 201.471,25.183 200.504,25.144 199.944 C 25.104 199.384,25.073 199.893,25.073 201.074 M170.553 203.516 C 170.553 203.892,170.593 204.045,170.642 203.857 C 170.692 203.669,170.692 203.362,170.642 203.174 C 170.593 202.986,170.553 203.140,170.553 203.516 M229.342 203.516 C 229.342 203.892,229.382 204.045,229.432 203.857 C 229.481 203.669,229.481 203.362,229.432 203.174 C 229.382 202.986,229.342 203.140,229.342 203.516 M369.004 204.492 C 369.004 205.083,369.040 205.325,369.085 205.029 C 369.130 204.734,369.130 204.250,369.085 203.955 C 369.040 203.660,369.004 203.901,369.004 204.492 M32.858 205.469 C 32.858 205.845,32.898 205.999,32.947 205.811 C 32.996 205.623,32.996 205.315,32.947 205.127 C 32.898 204.939,32.858 205.093,32.858 205.469 M157.077 205.469 C 157.077 205.845,157.117 205.999,157.166 205.811 C 157.215 205.623,157.215 205.315,157.166 205.127 C 157.117 204.939,157.077 205.093,157.077 205.469 M242.819 205.469 C 242.819 205.845,242.859 205.999,242.908 205.811 C 242.957 205.623,242.957 205.315,242.908 205.127 C 242.859 204.939,242.819 205.093,242.819 205.469 M170.375 206.641 C 170.375 207.339,170.410 207.625,170.454 207.275 C 170.497 206.926,170.497 206.355,170.454 206.006 C 170.410 205.657,170.375 205.942,170.375 206.641 M229.553 206.543 C 229.554 207.188,229.590 207.428,229.634 207.077 C 229.677 206.726,229.676 206.198,229.632 205.905 C 229.587 205.611,229.552 205.898,229.553 206.543 M25.245 207.129 C 25.247 207.559,25.287 207.711,25.333 207.468 C 25.380 207.225,25.378 206.874,25.330 206.687 C 25.281 206.500,25.242 206.699,25.245 207.129 M368.799 208.496 C 368.801 208.926,368.841 209.079,368.888 208.836 C 368.935 208.593,368.933 208.241,368.884 208.054 C 368.835 207.868,368.797 208.066,368.799 208.496 M157.081 212.012 C 157.083 212.441,157.123 212.594,157.169 212.351 C 157.216 212.108,157.214 211.757,157.165 211.570 C 157.117 211.383,157.078 211.582,157.081 212.012 M242.823 212.012 C 242.825 212.441,242.865 212.594,242.912 212.351 C 242.958 212.108,242.957 211.757,242.908 211.570 C 242.859 211.383,242.821 211.582,242.823 212.012 M170.375 213.281 C 170.375 213.979,170.410 214.265,170.454 213.916 C 170.497 213.567,170.497 212.996,170.454 212.646 C 170.410 212.297,170.375 212.583,170.375 213.281 M229.555 213.281 C 229.555 213.979,229.590 214.265,229.633 213.916 C 229.677 213.567,229.677 212.996,229.633 212.646 C 229.590 212.297,229.555 212.583,229.555 213.281 M121.382 259.277 C 121.382 267.012,121.406 270.147,121.435 266.245 C 121.465 262.343,121.465 256.015,121.435 252.183 C 121.406 248.350,121.382 251.543,121.382 259.277 M278.608 259.180 C 278.608 266.860,278.632 270.002,278.662 266.162 C 278.692 262.322,278.692 256.038,278.662 252.197 C 278.632 248.357,278.608 251.499,278.608 259.180 M92.279 267.773 C 92.279 274.487,92.304 277.234,92.334 273.877 C 92.364 270.520,92.364 265.027,92.334 261.670 C 92.304 258.313,92.279 261.060,92.279 267.773 M307.709 267.773 C 307.709 274.487,307.734 277.234,307.764 273.877 C 307.794 270.520,307.794 265.027,307.764 261.670 C 307.734 258.313,307.709 261.060,307.709 267.773 M181.250 267.285 C 181.614 267.661,181.957 267.969,182.010 267.969 C 182.064 267.969,181.810 267.661,181.445 267.285 C 181.081 266.909,180.739 266.602,180.685 266.602 C 180.631 266.602,180.886 266.909,181.250 267.285 M218.544 267.334 L 217.871 268.066 218.604 267.393 C 219.006 267.023,219.336 266.694,219.336 266.661 C 219.336 266.512,219.171 266.652,218.544 267.334 M185.449 271.484 C 185.869 271.914,186.256 272.266,186.310 272.266 C 186.363 272.266,186.064 271.914,185.645 271.484 C 185.225 271.055,184.838 270.703,184.784 270.703 C 184.730 270.703,185.030 271.055,185.449 271.484 M214.346 271.533 L 213.574 272.363 214.404 271.591 C 215.176 270.873,215.324 270.703,215.176 270.703 C 215.144 270.703,214.771 271.077,214.346 271.533 M123.877 291.736 C 124.065 291.785,124.373 291.785,124.561 291.736 C 124.749 291.687,124.595 291.647,124.219 291.647 C 123.843 291.647,123.689 291.687,123.877 291.736 M275.439 291.736 C 275.627 291.785,275.935 291.785,276.123 291.736 C 276.311 291.687,276.157 291.647,275.781 291.647 C 275.405 291.647,275.251 291.687,275.439 291.736 M126.321 291.935 C 126.564 291.982,126.915 291.980,127.102 291.931 C 127.289 291.882,127.090 291.844,126.660 291.846 C 126.230 291.848,126.078 291.888,126.321 291.935 M141.946 291.935 C 142.189 291.982,142.540 291.980,142.727 291.931 C 142.914 291.882,142.715 291.844,142.285 291.846 C 141.855 291.848,141.703 291.888,141.946 291.935 M257.375 291.935 C 257.618 291.982,257.970 291.980,258.157 291.931 C 258.343 291.882,258.145 291.844,257.715 291.846 C 257.285 291.848,257.132 291.888,257.375 291.935 M273.000 291.935 C 273.243 291.982,273.595 291.980,273.782 291.931 C 273.968 291.882,273.770 291.844,273.340 291.846 C 272.910 291.848,272.757 291.888,273.000 291.935 M129.938 292.136 C 130.451 292.176,131.242 292.176,131.695 292.135 C 132.149 292.094,131.729 292.061,130.762 292.062 C 129.795 292.062,129.424 292.096,129.938 292.136 M137.451 292.135 C 137.908 292.176,138.655 292.176,139.111 292.135 C 139.568 292.094,139.194 292.060,138.281 292.060 C 137.368 292.060,136.995 292.094,137.451 292.135 M260.889 292.135 C 261.345 292.176,262.092 292.176,262.549 292.135 C 263.005 292.094,262.632 292.060,261.719 292.060 C 260.806 292.060,260.432 292.094,260.889 292.135 M268.414 292.136 C 268.928 292.176,269.719 292.176,270.172 292.135 C 270.625 292.094,270.205 292.061,269.238 292.062 C 268.271 292.062,267.901 292.096,268.414 292.136 M81.122 298.535 C 81.122 299.395,81.157 299.722,81.198 299.262 C 81.239 298.803,81.239 298.100,81.197 297.700 C 81.155 297.300,81.121 297.676,81.122 298.535 M318.817 298.535 C 318.818 299.395,318.852 299.722,318.893 299.262 C 318.935 298.803,318.934 298.100,318.892 297.700 C 318.850 297.300,318.816 297.676,318.817 298.535 M134.814 303.650 C 135.002 303.699,135.310 303.699,135.498 303.650 C 135.686 303.601,135.532 303.561,135.156 303.561 C 134.780 303.561,134.626 303.601,134.814 303.650 M264.502 303.650 C 264.690 303.699,264.998 303.699,265.186 303.650 C 265.374 303.601,265.220 303.561,264.844 303.561 C 264.468 303.561,264.314 303.601,264.502 303.650 M120.166 303.856 C 121.106 303.892,122.644 303.892,123.584 303.856 C 124.524 303.821,123.755 303.791,121.875 303.791 C 119.995 303.791,119.226 303.821,120.166 303.856 M128.667 303.854 C 129.127 303.895,129.830 303.895,130.230 303.853 C 130.630 303.811,130.254 303.777,129.395 303.778 C 128.535 303.779,128.208 303.813,128.667 303.854 M269.878 303.854 C 270.338 303.895,271.041 303.895,271.441 303.853 C 271.841 303.811,271.465 303.777,270.605 303.778 C 269.746 303.779,269.419 303.813,269.878 303.854 M276.416 303.856 C 277.356 303.892,278.894 303.892,279.834 303.856 C 280.774 303.821,280.005 303.791,278.125 303.791 C 276.245 303.791,275.476 303.821,276.416 303.856 M97.009 304.052 C 98.855 304.084,101.931 304.084,103.845 304.052 C 105.758 304.020,104.248 303.994,100.488 303.994 C 96.729 303.994,95.163 304.020,97.009 304.052 M296.032 304.052 C 297.878 304.084,300.955 304.084,302.868 304.052 C 304.782 304.020,303.271 303.994,299.512 303.994 C 295.752 303.994,294.186 304.020,296.032 304.052 M324.695 311.963 L 324.121 312.598 324.756 312.024 C 325.348 311.489,325.480 311.328,325.330 311.328 C 325.296 311.328,325.010 311.614,324.695 311.963 M79.688 314.746 C 80.271 315.337,80.792 315.820,80.846 315.820 C 80.900 315.820,80.466 315.337,79.883 314.746 C 79.299 314.155,78.778 313.672,78.724 313.672 C 78.671 313.672,79.104 314.155,79.688 314.746 M319.824 316.992 C 318.216 318.604,316.943 319.922,316.997 319.922 C 317.051 319.922,318.411 318.604,320.020 316.992 C 321.628 315.381,322.900 314.063,322.847 314.063 C 322.793 314.063,321.433 315.381,319.824 316.992 M72.852 318.652 C 73.216 319.028,73.558 319.336,73.612 319.336 C 73.665 319.336,73.411 319.028,73.047 318.652 C 72.682 318.276,72.340 317.969,72.287 317.969 C 72.233 317.969,72.487 318.276,72.852 318.652 M84.277 319.336 C 84.915 319.980,85.481 320.508,85.535 320.508 C 85.588 320.508,85.110 319.980,84.473 319.336 C 83.835 318.691,83.269 318.164,83.215 318.164 C 83.162 318.164,83.640 318.691,84.277 319.336 M328.411 319.189 L 327.441 320.215 328.467 319.246 C 329.420 318.345,329.582 318.164,329.436 318.164 C 329.405 318.164,328.944 318.625,328.411 319.189 M314.734 321.924 L 314.160 322.559 314.795 321.985 C 315.387 321.450,315.519 321.289,315.369 321.289 C 315.335 321.289,315.049 321.575,314.734 321.924 M86.914 321.741 C 86.914 321.774,87.200 322.060,87.549 322.376 L 88.184 322.949 87.610 322.314 C 87.075 321.723,86.914 321.590,86.914 321.741 M322.070 325.488 C 321.596 325.972,321.252 326.367,321.305 326.367 C 321.359 326.367,321.791 325.972,322.266 325.488 C 322.740 325.005,323.084 324.609,323.031 324.609 C 322.977 324.609,322.545 325.005,322.070 325.488 M80.371 326.172 C 80.791 326.602,81.178 326.953,81.232 326.953 C 81.285 326.953,80.986 326.602,80.566 326.172 C 80.147 325.742,79.760 325.391,79.706 325.391 C 79.652 325.391,79.952 325.742,80.371 326.172 M193.408 366.150 C 193.596 366.199,193.904 366.199,194.092 366.150 C 194.280 366.101,194.126 366.061,193.750 366.061 C 193.374 366.061,193.220 366.101,193.408 366.150 M207.961 366.154 C 208.204 366.200,208.556 366.199,208.743 366.150 C 208.929 366.101,208.730 366.063,208.301 366.065 C 207.871 366.067,207.718 366.107,207.961 366.154 M191.750 373.771 C 191.993 373.818,192.345 373.816,192.532 373.767 C 192.718 373.718,192.520 373.680,192.090 373.682 C 191.660 373.684,191.507 373.724,191.750 373.771 M197.125 373.972 C 197.639 374.012,198.430 374.012,198.883 373.971 C 199.336 373.930,198.916 373.897,197.949 373.897 C 196.982 373.898,196.612 373.932,197.125 373.972 M202.979 373.972 C 203.489 374.012,204.324 374.012,204.834 373.972 C 205.344 373.931,204.927 373.899,203.906 373.899 C 202.886 373.899,202.468 373.931,202.979 373.972 " stroke="none" fill="#638c56" fill-rule="evenodd"></path><path id="path3" d="M194.291 22.407 C 194.642 22.451,195.169 22.450,195.462 22.405 C 195.756 22.361,195.469 22.325,194.824 22.326 C 194.180 22.327,193.940 22.364,194.291 22.407 M206.400 22.407 C 206.751 22.451,207.278 22.450,207.572 22.405 C 207.865 22.361,207.578 22.325,206.934 22.326 C 206.289 22.327,206.049 22.364,206.400 22.407 M190.283 22.596 C 190.471 22.645,190.779 22.645,190.967 22.596 C 191.155 22.546,191.001 22.506,190.625 22.506 C 190.249 22.506,190.095 22.546,190.283 22.596 M198.595 29.833 C 199.917 29.867,202.027 29.867,203.283 29.833 C 204.539 29.799,203.457 29.772,200.879 29.772 C 198.301 29.772,197.273 29.800,198.595 29.833 M191.946 30.021 C 192.189 30.068,192.540 30.066,192.727 30.017 C 192.914 29.968,192.715 29.930,192.285 29.932 C 191.855 29.934,191.703 29.974,191.946 30.021 M199.561 63.224 C 199.802 63.270,200.198 63.270,200.439 63.224 C 200.681 63.177,200.483 63.139,200.000 63.139 C 199.517 63.139,199.319 63.177,199.561 63.224 M320.313 69.006 C 320.313 69.040,320.598 69.326,320.947 69.641 L 321.582 70.215 321.008 69.580 C 320.474 68.988,320.313 68.856,320.313 69.006 M76.557 73.779 L 75.293 75.098 76.611 73.834 C 77.336 73.139,77.930 72.545,77.930 72.515 C 77.930 72.372,77.731 72.555,76.557 73.779 M316.309 75.586 C 316.728 76.016,317.115 76.367,317.169 76.367 C 317.223 76.367,316.923 76.016,316.504 75.586 C 316.084 75.156,315.697 74.805,315.643 74.805 C 315.590 74.805,315.889 75.156,316.309 75.586 M328.906 77.600 C 328.906 77.634,329.192 77.919,329.541 78.235 L 330.176 78.809 329.602 78.174 C 329.067 77.582,328.906 77.449,328.906 77.600 M323.242 82.520 C 323.607 82.896,323.949 83.203,324.002 83.203 C 324.056 83.203,323.802 82.896,323.438 82.520 C 323.073 82.144,322.731 81.836,322.677 81.836 C 322.624 81.836,322.878 82.144,323.242 82.520 M77.820 83.252 L 77.246 83.887 77.881 83.313 C 78.473 82.778,78.605 82.617,78.455 82.617 C 78.421 82.617,78.135 82.903,77.820 83.252 M188.337 84.324 C 188.959 84.363,189.926 84.363,190.486 84.323 C 191.046 84.284,190.537 84.252,189.355 84.253 C 188.174 84.253,187.716 84.285,188.337 84.324 M209.626 84.324 C 210.248 84.363,211.215 84.363,211.775 84.323 C 212.335 84.284,211.826 84.252,210.645 84.253 C 209.463 84.253,209.005 84.285,209.626 84.324 M190.767 93.891 C 191.114 93.934,191.729 93.935,192.134 93.893 C 192.540 93.850,192.256 93.815,191.504 93.814 C 190.752 93.813,190.420 93.848,190.767 93.891 M207.759 93.891 C 208.106 93.934,208.721 93.935,209.127 93.893 C 209.532 93.850,209.248 93.815,208.496 93.814 C 207.744 93.813,207.413 93.848,207.759 93.891 M195.373 112.012 C 195.374 112.656,195.411 112.896,195.454 112.545 C 195.498 112.194,195.497 111.667,195.452 111.373 C 195.407 111.080,195.372 111.367,195.373 112.012 M204.553 112.012 C 204.554 112.656,204.590 112.896,204.634 112.545 C 204.677 112.194,204.676 111.667,204.632 111.373 C 204.587 111.080,204.552 111.367,204.553 112.012 M124.276 112.059 C 125.005 112.097,126.148 112.096,126.815 112.058 C 127.482 112.020,126.885 111.990,125.488 111.990 C 124.092 111.990,123.546 112.021,124.276 112.059 M273.299 112.059 C 274.029 112.097,275.171 112.096,275.838 112.058 C 276.505 112.020,275.908 111.990,274.512 111.990 C 273.115 111.990,272.570 112.021,273.299 112.059 M117.825 112.250 C 118.122 112.294,118.561 112.293,118.802 112.247 C 119.042 112.201,118.799 112.164,118.262 112.165 C 117.725 112.167,117.528 112.205,117.825 112.250 M131.985 112.248 C 132.228 112.294,132.579 112.292,132.766 112.244 C 132.953 112.195,132.754 112.156,132.324 112.159 C 131.895 112.161,131.742 112.201,131.985 112.248 M267.336 112.248 C 267.579 112.294,267.931 112.292,268.118 112.244 C 268.304 112.195,268.105 112.156,267.676 112.159 C 267.246 112.161,267.093 112.201,267.336 112.248 M281.302 112.250 C 281.598 112.294,282.038 112.293,282.278 112.247 C 282.518 112.201,282.275 112.164,281.738 112.165 C 281.201 112.167,281.005 112.205,281.302 112.250 M105.322 112.635 C 105.510 112.684,105.818 112.684,106.006 112.635 C 106.194 112.586,106.040 112.545,105.664 112.545 C 105.288 112.545,105.134 112.586,105.322 112.635 M293.994 112.635 C 294.182 112.684,294.490 112.684,294.678 112.635 C 294.866 112.586,294.712 112.545,294.336 112.545 C 293.960 112.545,293.806 112.586,293.994 112.635 M96.633 112.833 C 96.876 112.880,97.228 112.878,97.414 112.830 C 97.601 112.781,97.402 112.742,96.973 112.745 C 96.543 112.747,96.390 112.787,96.633 112.833 M302.688 112.833 C 302.931 112.880,303.282 112.878,303.469 112.830 C 303.656 112.781,303.457 112.742,303.027 112.745 C 302.598 112.747,302.445 112.787,302.688 112.833 M87.649 113.029 C 87.892 113.075,88.243 113.074,88.430 113.025 C 88.617 112.976,88.418 112.938,87.988 112.940 C 87.559 112.942,87.406 112.982,87.649 113.029 M311.672 113.029 C 311.915 113.075,312.267 113.074,312.453 113.025 C 312.640 112.976,312.441 112.938,312.012 112.940 C 311.582 112.942,311.429 112.982,311.672 113.029 M121.754 137.500 C 121.754 138.735,121.785 139.241,121.824 138.623 C 121.863 138.005,121.863 136.995,121.824 136.377 C 121.785 135.759,121.754 136.265,121.754 137.500 M278.199 137.500 C 278.199 138.735,278.231 139.241,278.269 138.623 C 278.308 138.005,278.308 136.995,278.269 136.377 C 278.231 135.759,278.199 136.265,278.199 137.500 M194.622 153.564 L 193.652 154.590 194.678 153.621 C 195.242 153.088,195.703 152.626,195.703 152.595 C 195.703 152.449,195.522 152.612,194.622 153.564 M205.176 153.516 C 205.705 154.053,206.182 154.492,206.235 154.492 C 206.289 154.492,205.900 154.053,205.371 153.516 C 204.842 152.979,204.365 152.539,204.312 152.539 C 204.258 152.539,204.647 152.979,205.176 153.516 M92.668 177.539 C 92.668 182.642,92.694 184.729,92.724 182.178 C 92.755 179.626,92.755 175.452,92.724 172.900 C 92.694 170.349,92.668 172.437,92.668 177.539 M307.317 177.539 C 307.317 182.642,307.342 184.729,307.373 182.178 C 307.404 179.626,307.404 175.452,307.373 172.900 C 307.342 170.349,307.317 172.437,307.317 177.539 M121.567 187.500 C 121.567 189.702,121.595 190.603,121.630 189.502 C 121.665 188.401,121.665 186.599,121.630 185.498 C 121.595 184.397,121.567 185.298,121.567 187.500 M278.403 187.500 C 278.403 189.702,278.431 190.603,278.466 189.502 C 278.501 188.401,278.501 186.599,278.466 185.498 C 278.431 184.397,278.403 185.298,278.403 187.500 M368.991 189.453 C 368.991 189.829,369.031 189.983,369.080 189.795 C 369.129 189.607,369.129 189.299,369.080 189.111 C 369.031 188.923,368.991 189.077,368.991 189.453 M25.249 191.406 C 25.249 191.890,25.287 192.087,25.333 191.846 C 25.380 191.604,25.380 191.208,25.333 190.967 C 25.287 190.725,25.249 190.923,25.249 191.406 M376.618 191.895 C 376.620 192.432,376.658 192.628,376.703 192.331 C 376.748 192.034,376.746 191.595,376.700 191.355 C 376.654 191.115,376.617 191.357,376.618 191.895 M32.684 194.043 C 32.685 194.902,32.719 195.230,32.760 194.770 C 32.802 194.311,32.801 193.608,32.759 193.208 C 32.717 192.808,32.683 193.184,32.684 194.043 M369.225 198.047 C 369.225 200.571,369.252 201.604,369.286 200.342 C 369.320 199.080,369.320 197.014,369.286 195.752 C 369.252 194.490,369.225 195.522,369.225 198.047 M32.685 201.758 C 32.685 202.671,32.719 203.044,32.760 202.588 C 32.801 202.131,32.801 201.384,32.760 200.928 C 32.719 200.471,32.685 200.845,32.685 201.758 M376.618 204.199 C 376.620 204.736,376.658 204.933,376.703 204.636 C 376.748 204.339,376.746 203.900,376.700 203.659 C 376.654 203.419,376.617 203.662,376.618 204.199 M25.249 204.883 C 25.249 205.366,25.287 205.564,25.333 205.322 C 25.380 205.081,25.380 204.685,25.333 204.443 C 25.287 204.202,25.249 204.399,25.249 204.883 M157.104 208.691 C 157.105 209.873,157.137 210.331,157.176 209.710 C 157.215 209.088,157.214 208.121,157.175 207.561 C 157.136 207.001,157.104 207.510,157.104 208.691 M242.846 208.691 C 242.847 209.873,242.879 210.331,242.918 209.710 C 242.957 209.088,242.957 208.121,242.917 207.561 C 242.878 207.001,242.846 207.510,242.846 208.691 M92.473 239.453 C 92.473 244.448,92.498 246.492,92.529 243.994 C 92.560 241.497,92.560 237.410,92.529 234.912 C 92.498 232.415,92.473 234.458,92.473 239.453 M307.512 239.453 C 307.512 244.448,307.537 246.492,307.568 243.994 C 307.599 241.497,307.599 237.410,307.568 234.912 C 307.537 232.415,307.512 234.458,307.512 239.453 M121.371 239.453 C 121.371 241.655,121.400 242.556,121.435 241.455 C 121.470 240.354,121.470 238.552,121.435 237.451 C 121.400 236.350,121.371 237.251,121.371 239.453 M278.598 239.453 C 278.598 241.655,278.626 242.556,278.661 241.455 C 278.696 240.354,278.696 238.552,278.661 237.451 C 278.626 236.350,278.598 237.251,278.598 239.453 M191.211 261.780 C 191.211 261.813,191.497 262.099,191.846 262.415 L 192.480 262.988 191.907 262.354 C 191.372 261.762,191.211 261.629,191.211 261.780 M208.093 262.354 L 207.520 262.988 208.154 262.415 C 208.746 261.880,208.879 261.719,208.728 261.719 C 208.694 261.719,208.409 262.004,208.093 262.354 M194.336 264.905 C 194.336 264.938,194.622 265.224,194.971 265.540 L 195.605 266.113 195.032 265.479 C 194.497 264.887,194.336 264.754,194.336 264.905 M204.968 265.479 L 204.395 266.113 205.029 265.540 C 205.621 265.005,205.754 264.844,205.603 264.844 C 205.569 264.844,205.284 265.129,204.968 265.479 M121.154 288.379 C 121.155 289.023,121.192 289.264,121.235 288.913 C 121.279 288.561,121.278 288.034,121.233 287.741 C 121.189 287.447,121.153 287.734,121.154 288.379 M278.771 288.379 C 278.773 289.023,278.809 289.264,278.852 288.913 C 278.896 288.561,278.895 288.034,278.850 287.741 C 278.806 287.447,278.770 287.734,278.771 288.379 M132.669 303.656 C 132.966 303.701,133.405 303.699,133.645 303.653 C 133.885 303.607,133.643 303.570,133.105 303.571 C 132.568 303.573,132.372 303.611,132.669 303.656 M266.458 303.656 C 266.755 303.701,267.194 303.699,267.434 303.653 C 267.675 303.607,267.432 303.570,266.895 303.571 C 266.357 303.573,266.161 303.611,266.458 303.656 M114.600 303.855 C 115.164 303.894,116.086 303.894,116.650 303.855 C 117.214 303.815,116.753 303.783,115.625 303.783 C 114.497 303.783,114.036 303.815,114.600 303.855 M283.350 303.855 C 283.914 303.894,284.836 303.894,285.400 303.855 C 285.964 303.815,285.503 303.783,284.375 303.783 C 283.247 303.783,282.786 303.815,283.350 303.855 M89.795 304.050 C 90.359 304.090,91.282 304.090,91.846 304.050 C 92.410 304.011,91.948 303.979,90.820 303.979 C 89.692 303.979,89.231 304.011,89.795 304.050 M308.154 304.050 C 308.718 304.090,309.641 304.090,310.205 304.050 C 310.769 304.011,310.308 303.979,309.180 303.979 C 308.052 303.979,307.590 304.011,308.154 304.050 M323.718 313.135 L 323.145 313.770 323.779 313.196 C 324.371 312.661,324.504 312.500,324.353 312.500 C 324.319 312.500,324.034 312.786,323.718 313.135 M329.578 317.822 L 329.004 318.457 329.639 317.883 C 330.230 317.349,330.363 317.188,330.212 317.188 C 330.179 317.188,329.893 317.473,329.578 317.822 M76.465 322.266 C 77.751 323.555,78.846 324.609,78.900 324.609 C 78.954 324.609,77.946 323.555,76.660 322.266 C 75.374 320.977,74.279 319.922,74.225 319.922 C 74.171 319.922,75.179 320.977,76.465 322.266 M315.710 321.143 L 315.137 321.777 315.771 321.204 C 316.363 320.669,316.496 320.508,316.345 320.508 C 316.312 320.508,316.026 320.793,315.710 321.143 M85.938 320.960 C 85.938 320.993,86.223 321.279,86.572 321.594 L 87.207 322.168 86.633 321.533 C 86.099 320.942,85.938 320.809,85.938 320.960 M325.000 322.559 C 324.200 323.364,323.589 324.023,323.643 324.023 C 323.696 324.023,324.395 323.364,325.195 322.559 C 325.996 321.753,326.606 321.094,326.553 321.094 C 326.499 321.094,325.800 321.753,325.000 322.559 M191.455 366.150 C 191.643 366.199,191.951 366.199,192.139 366.150 C 192.327 366.101,192.173 366.061,191.797 366.061 C 191.421 366.061,191.267 366.101,191.455 366.150 M209.719 366.154 C 209.962 366.200,210.314 366.199,210.500 366.150 C 210.687 366.101,210.488 366.063,210.059 366.065 C 209.629 366.067,209.476 366.107,209.719 366.154 M196.240 366.354 C 196.697 366.395,197.444 366.395,197.900 366.354 C 198.357 366.313,197.983 366.279,197.070 366.279 C 196.157 366.279,195.784 366.313,196.240 366.354 M204.058 366.354 C 204.517 366.395,205.220 366.395,205.620 366.353 C 206.020 366.311,205.645 366.277,204.785 366.278 C 203.926 366.279,203.599 366.313,204.058 366.354 M211.377 373.572 C 211.565 373.621,211.873 373.621,212.061 373.572 C 212.249 373.523,212.095 373.483,211.719 373.483 C 211.343 373.483,211.189 373.523,211.377 373.572 M193.802 373.773 C 194.098 373.818,194.538 373.817,194.778 373.770 C 195.018 373.724,194.775 373.687,194.238 373.689 C 193.701 373.690,193.505 373.728,193.802 373.773 M207.275 373.773 C 207.571 373.817,208.054 373.817,208.350 373.773 C 208.645 373.728,208.403 373.691,207.813 373.691 C 207.222 373.691,206.980 373.728,207.275 373.773 " stroke="none" fill="#8cac84" fill-rule="evenodd"></path><path id="path4" d="M325.293 73.828 C 326.039 74.580,326.694 75.195,326.747 75.195 C 326.801 75.195,326.234 74.580,325.488 73.828 C 324.742 73.076,324.088 72.461,324.034 72.461 C 323.980 72.461,324.547 73.076,325.293 73.828 M74.695 75.635 L 74.121 76.270 74.756 75.696 C 75.348 75.161,75.480 75.000,75.330 75.000 C 75.296 75.000,75.010 75.286,74.695 75.635 M193.311 93.891 C 193.660 93.935,194.231 93.935,194.580 93.891 C 194.929 93.848,194.644 93.813,193.945 93.813 C 193.247 93.813,192.961 93.848,193.311 93.891 M205.420 93.891 C 205.769 93.935,206.340 93.935,206.689 93.891 C 207.039 93.848,206.753 93.813,206.055 93.813 C 205.356 93.813,205.071 93.848,205.420 93.891 M122.119 112.049 C 122.307 112.098,122.615 112.098,122.803 112.049 C 122.991 112.000,122.837 111.959,122.461 111.959 C 122.085 111.959,121.931 112.000,122.119 112.049 M128.271 112.052 C 128.513 112.098,128.909 112.098,129.150 112.052 C 129.392 112.005,129.194 111.967,128.711 111.967 C 128.228 111.967,128.030 112.005,128.271 112.052 M270.850 112.052 C 271.091 112.098,271.487 112.098,271.729 112.052 C 271.970 112.005,271.772 111.967,271.289 111.967 C 270.806 111.967,270.608 112.005,270.850 112.052 M277.197 112.049 C 277.385 112.098,277.693 112.098,277.881 112.049 C 278.069 112.000,277.915 111.959,277.539 111.959 C 277.163 111.959,277.009 112.000,277.197 112.049 M121.740 140.723 C 121.741 141.367,121.778 141.607,121.821 141.256 C 121.865 140.905,121.864 140.378,121.819 140.084 C 121.775 139.791,121.739 140.078,121.740 140.723 M278.186 140.723 C 278.187 141.367,278.223 141.607,278.267 141.256 C 278.310 140.905,278.309 140.378,278.265 140.084 C 278.220 139.791,278.184 140.078,278.186 140.723 M92.663 162.207 C 92.663 164.893,92.690 166.018,92.724 164.709 C 92.758 163.399,92.758 161.202,92.724 159.826 C 92.691 158.450,92.663 159.521,92.663 162.207 M307.311 162.207 C 307.311 164.893,307.339 166.018,307.372 164.709 C 307.406 163.399,307.406 161.202,307.373 159.826 C 307.339 158.450,307.311 159.521,307.311 162.207 M121.543 192.383 C 121.543 192.974,121.580 193.215,121.624 192.920 C 121.669 192.625,121.669 192.141,121.624 191.846 C 121.580 191.550,121.543 191.792,121.543 192.383 M278.379 192.383 C 278.379 192.974,278.415 193.215,278.460 192.920 C 278.505 192.625,278.505 192.141,278.460 191.846 C 278.415 191.550,278.379 191.792,278.379 192.383 M32.691 198.047 C 32.691 199.282,32.723 199.788,32.762 199.170 C 32.800 198.552,32.800 197.542,32.762 196.924 C 32.723 196.306,32.691 196.812,32.691 198.047 M25.056 198.145 C 25.057 198.682,25.095 198.878,25.140 198.581 C 25.185 198.284,25.184 197.845,25.137 197.605 C 25.091 197.365,25.054 197.607,25.056 198.145 M92.467 224.121 C 92.467 226.807,92.495 227.932,92.529 226.623 C 92.562 225.313,92.562 223.116,92.529 221.740 C 92.495 220.364,92.468 221.436,92.467 224.121 M307.507 224.121 C 307.506 226.807,307.534 227.932,307.568 226.623 C 307.601 225.313,307.602 223.116,307.568 221.740 C 307.534 220.364,307.507 221.436,307.507 224.121 M121.348 244.336 C 121.348 244.927,121.384 245.168,121.429 244.873 C 121.474 244.578,121.474 244.094,121.429 243.799 C 121.384 243.503,121.348 243.745,121.348 244.336 M278.574 244.336 C 278.574 244.927,278.611 245.168,278.656 244.873 C 278.700 244.578,278.700 244.094,278.656 243.799 C 278.611 243.503,278.574 243.745,278.574 244.336 M192.773 263.342 C 192.773 263.376,193.059 263.662,193.408 263.977 L 194.043 264.551 193.469 263.916 C 192.935 263.324,192.773 263.191,192.773 263.342 M206.531 263.916 L 205.957 264.551 206.592 263.977 C 207.183 263.442,207.316 263.281,207.165 263.281 C 207.132 263.281,206.846 263.567,206.531 263.916 M183.887 269.922 C 184.306 270.352,184.694 270.703,184.747 270.703 C 184.801 270.703,184.502 270.352,184.082 269.922 C 183.662 269.492,183.275 269.141,183.222 269.141 C 183.168 269.141,183.467 269.492,183.887 269.922 M215.909 269.971 L 215.137 270.801 215.967 270.029 C 216.739 269.311,216.887 269.141,216.739 269.141 C 216.707 269.141,216.333 269.514,215.909 269.971 M92.270 285.449 C 92.270 287.705,92.299 288.601,92.333 287.441 C 92.368 286.280,92.368 284.434,92.333 283.339 C 92.298 282.244,92.270 283.193,92.270 285.449 M307.700 285.449 C 307.700 287.705,307.728 288.601,307.763 287.441 C 307.798 286.280,307.797 284.434,307.763 283.339 C 307.728 282.244,307.700 283.193,307.700 285.449 M125.637 303.851 C 125.934 303.896,126.374 303.895,126.614 303.848 C 126.854 303.802,126.611 303.765,126.074 303.767 C 125.537 303.768,125.341 303.806,125.637 303.851 M273.489 303.851 C 273.786 303.896,274.225 303.895,274.466 303.848 C 274.706 303.802,274.463 303.765,273.926 303.767 C 273.389 303.768,273.192 303.806,273.489 303.851 M200.049 366.354 C 200.559 366.395,201.394 366.395,201.904 366.354 C 202.415 366.314,201.997 366.281,200.977 366.281 C 199.956 366.281,199.539 366.314,200.049 366.354 M200.539 373.966 C 200.782 374.013,201.134 374.011,201.321 373.962 C 201.507 373.913,201.309 373.875,200.879 373.877 C 200.449 373.880,200.296 373.920,200.539 373.966 " stroke="none" fill="#82a478" fill-rule="evenodd"></path></g></svg>